<?xml version="1.0" encoding="UTF-8" standalone="no"?>
<svg
   id="emoji"
   viewBox="0 0 43.51181 43.51181"
   version="1.1"
   sodipodi:docname="favicon.svg"
   width="43.51181"
   height="43.51181"
   inkscape:version="1.4.3rc (9500139e98, 2025-12-13)"
   xmlns:inkscape="http://www.inkscape.org/namespaces/inkscape"
   xmlns:sodipodi="http://sodipodi.sourceforge.net/DTD/sodipodi-0.dtd"
   xmlns="http://www.w3.org/2000/svg"
   xmlns:svg="http://www.w3.org/2000/svg">
  <defs
     id="defs4" />
  <sodipodi:namedview
     id="namedview4"
     pagecolor="#ffffff"
     bordercolor="#000000"
     borderopacity="0.25"
     inkscape:showpageshadow="2"
     inkscape:pageopacity="0.0"
     inkscape:pagecheckerboard="0"
     inkscape:deskcolor="#d1d1d1"
     inkscape:zoom="16.666667"
     inkscape:cx="17.7"
     inkscape:cy="16.26"
     inkscape:window-width="2560"
     inkscape:window-height="1371"
     inkscape:window-x="0"
     inkscape:window-y="0"
     inkscape:window-maximized="1"
     inkscape:current-layer="emoji" />
  <g
     id="color"
     transform="translate(-14.574095,-13.974095)">
    <path
       fill="#d0cfce"
       d="m 55.785,34.99 a 0.9992,0.9992 0 0 1 0.1055,1.041 l -3.8946,8.0626 a 1.0021,1.0021 0 0 1 -0.706,0.5468 L 40.492,46.7783 A 1.007,1.007 0 0 1 39.6981,46.5977 L 16.2137,29.02 a 1.0007,1.0007 0 0 1 -0.1758,-1.4316 l 2.4385,-2.9971 a 0.9981,0.9981 0 0 1 0.3252,-0.2627 l 18.3057,-9.2217 a 1.0147,1.0147 0 0 1 0.6572,-0.0849 l 3.8193,0.8066 a 0.9974,0.9974 0 0 1 0.6367,0.4424 l 2.6731,4.144 1.6213,2.4905 z"
       id="path1" />
    <polygon
       fill="#3f3f3f"
       points="15.814,33.046 26.692,56 46.788,56 40.317,45.819 16.943,28.219 "
       id="polygon1" />
    <polygon
       fill="#9b9b9a"
       points="40.317,45.819 50.939,43.94 54.78,36.031 56.128,47.544 54.469,56 46.788,56 "
       id="polygon2" />
  </g>
  <g
     id="line"
     transform="translate(-14.574095,-13.974095)">
    <polyline
       fill="none"
       stroke="#000000"
       stroke-linecap="round"
       stroke-linejoin="round"
       stroke-width="2"
       points="45.797 23.608 54.99 35.597 56.128 47.239 54.469 56 26.692 56 16 32.86 16.813 28.219 19.252 25.222 37.558 16 41.377 16.807 44.02 20.917 39.008 24.27"
       id="polyline2" />
    <polyline
       fill="none"
       stroke="#000000"
       stroke-linecap="round"
       stroke-linejoin="round"
       stroke-width="2"
       points="47.359 56 40.298 45.797 16.813 28.219"
       id="polyline3" />
    <polyline
       fill="none"
       stroke="#000000"
       stroke-linecap="round"
       stroke-linejoin="round"
       stroke-width="2"
       points="54.99 35.597 51.095 43.659 40.298 45.797"
       id="polyline4" />
  </g>
</svg>
